<?xml version="1.0" encoding="UTF-8" standalone="no"?>
<svg
   xmlns:dc="http://purl.org/dc/elements/1.1/"
   xmlns:cc="http://creativecommons.org/ns#"
   xmlns:rdf="http://www.w3.org/1999/02/22-rdf-syntax-ns#"
   xmlns:svg="http://www.w3.org/2000/svg"
   xmlns="http://www.w3.org/2000/svg"
   xmlns:sodipodi="http://sodipodi.sourceforge.net/DTD/sodipodi-0.dtd"
   xmlns:inkscape="http://www.inkscape.org/namespaces/inkscape"
   viewBox="2.7755576e-017 0 120 120"
   version="1.1"
   id="svg10"
   sodipodi:docname="logo.svg"
   width="100"
   height="100"
   inkscape:version="0.92.3 (2405546, 2018-03-11)">
  <metadata
     id="metadata16">
    <rdf:RDF>
      <cc:Work
         rdf:about="">
        <dc:format>image/svg+xml</dc:format>
        <dc:type
           rdf:resource="http://purl.org/dc/dcmitype/StillImage" />
        <dc:title></dc:title>
      </cc:Work>
    </rdf:RDF>
  </metadata>
  <defs
     id="defs14">
    <marker
       inkscape:isstock="true"
       style="overflow:visible"
       id="marker17752"
       refX="0"
       refY="0"
       orient="auto"
       inkscape:stockid="DotS">
      <path
         transform="matrix(0.2,0,0,0.2,1.48,0.2)"
         style="fill:#008000;fill-opacity:1;fill-rule:evenodd;stroke:#008000;stroke-width:1.00000003pt;stroke-opacity:1"
         d="m -2.5,-1 c 0,2.76 -2.24,5 -5,5 -2.76,0 -5,-2.24 -5,-5 0,-2.76 2.24,-5 5,-5 2.76,0 5,2.24 5,5 z"
         id="path17750"
         inkscape:connector-curvature="0" />
    </marker>
    <marker
       inkscape:stockid="DotS"
       orient="auto"
       refY="0"
       refX="0"
       id="marker17502"
       style="overflow:visible"
       inkscape:isstock="true">
      <path
         id="path17500"
         d="m -2.5,-1 c 0,2.76 -2.24,5 -5,5 -2.76,0 -5,-2.24 -5,-5 0,-2.76 2.24,-5 5,-5 2.76,0 5,2.24 5,5 z"
         style="fill:#008000;fill-opacity:1;fill-rule:evenodd;stroke:#008000;stroke-width:1.00000003pt;stroke-opacity:1"
         transform="matrix(0.2,0,0,0.2,1.48,0.2)"
         inkscape:connector-curvature="0" />
    </marker>
    <marker
       inkscape:stockid="DotS"
       orient="auto"
       refY="0"
       refX="0"
       id="DotS"
       style="overflow:visible"
       inkscape:isstock="true"
       inkscape:collect="always">
      <path
         id="path4612"
         d="m -2.5,-1 c 0,2.76 -2.24,5 -5,5 -2.76,0 -5,-2.24 -5,-5 0,-2.76 2.24,-5 5,-5 2.76,0 5,2.24 5,5 z"
         style="fill:#008000;fill-opacity:1;fill-rule:evenodd;stroke:#008000;stroke-width:1.00000003pt;stroke-opacity:1"
         transform="matrix(0.2,0,0,0.2,1.48,0.2)"
         inkscape:connector-curvature="0" />
    </marker>
    <marker
       inkscape:stockid="DotM"
       orient="auto"
       refY="0"
       refX="0"
       id="marker16590"
       style="overflow:visible"
       inkscape:isstock="true">
      <path
         id="path16588"
         d="m -2.5,-1 c 0,2.76 -2.24,5 -5,5 -2.76,0 -5,-2.24 -5,-5 0,-2.76 2.24,-5 5,-5 2.76,0 5,2.24 5,5 z"
         style="fill:#008080;fill-opacity:1;fill-rule:evenodd;stroke:#008080;stroke-width:1.00000003pt;stroke-opacity:1"
         transform="matrix(0.4,0,0,0.4,2.96,0.4)"
         inkscape:connector-curvature="0" />
    </marker>
    <marker
       inkscape:stockid="DotL"
       orient="auto"
       refY="0"
       refX="0"
       id="DotL"
       style="overflow:visible"
       inkscape:isstock="true">
      <path
         id="path4606"
         d="m -2.5,-1 c 0,2.76 -2.24,5 -5,5 -2.76,0 -5,-2.24 -5,-5 0,-2.76 2.24,-5 5,-5 2.76,0 5,2.24 5,5 z"
         style="fill:#000000;fill-opacity:1;fill-rule:evenodd;stroke:#000000;stroke-width:1.00000003pt;stroke-opacity:1"
         transform="matrix(0.8,0,0,0.8,5.92,0.8)"
         inkscape:connector-curvature="0" />
    </marker>
    <marker
       inkscape:isstock="true"
       style="overflow:visible"
       id="marker15009"
       refX="0"
       refY="0"
       orient="auto"
       inkscape:stockid="Arrow2Send">
      <path
         transform="matrix(-0.3,0,0,-0.3,0.69,0)"
         d="M 8.7185878,4.0337352 -2.2072895,0.01601326 8.7185884,-4.0017078 c -1.7454984,2.3720609 -1.7354408,5.6174519 -6e-7,8.035443 z"
         style="fill:#000000;fill-opacity:1;fill-rule:evenodd;stroke:#000000;stroke-width:0.625;stroke-linejoin:round;stroke-opacity:1"
         id="path15007"
         inkscape:connector-curvature="0" />
    </marker>
    <marker
       inkscape:isstock="true"
       style="overflow:visible"
       id="marker14685"
       refX="0"
       refY="0"
       orient="auto"
       inkscape:stockid="Arrow2Send">
      <path
         transform="matrix(-0.3,0,0,-0.3,0.69,0)"
         d="M 8.7185878,4.0337352 -2.2072895,0.01601326 8.7185884,-4.0017078 c -1.7454984,2.3720609 -1.7354408,5.6174519 -6e-7,8.035443 z"
         style="fill:#ff0066;fill-opacity:1;fill-rule:evenodd;stroke:#ff0066;stroke-width:0.625;stroke-linejoin:round;stroke-opacity:1"
         id="path14683"
         inkscape:connector-curvature="0" />
    </marker>
    <marker
       inkscape:isstock="true"
       style="overflow:visible"
       id="marker13939"
       refX="0"
       refY="0"
       orient="auto"
       inkscape:stockid="Arrow2Send">
      <path
         transform="matrix(-0.3,0,0,-0.3,0.69,0)"
         d="M 8.7185878,4.0337352 -2.2072895,0.01601326 8.7185884,-4.0017078 c -1.7454984,2.3720609 -1.7354408,5.6174519 -6e-7,8.035443 z"
         style="fill:#000000;fill-opacity:1;fill-rule:evenodd;stroke:#000000;stroke-width:0.625;stroke-linejoin:round;stroke-opacity:1"
         id="path13937"
         inkscape:connector-curvature="0" />
    </marker>
    <marker
       inkscape:isstock="true"
       style="overflow:visible"
       id="marker12771"
       refX="0"
       refY="0"
       orient="auto"
       inkscape:stockid="Arrow2Send">
      <path
         transform="matrix(-0.3,0,0,-0.3,0.69,0)"
         d="M 8.7185878,4.0337352 -2.2072895,0.01601326 8.7185884,-4.0017078 c -1.7454984,2.3720609 -1.7354408,5.6174519 -6e-7,8.035443 z"
         style="fill:#000000;fill-opacity:1;fill-rule:evenodd;stroke:#000000;stroke-width:0.625;stroke-linejoin:round;stroke-opacity:1"
         id="path12769"
         inkscape:connector-curvature="0" />
    </marker>
    <marker
       inkscape:isstock="true"
       style="overflow:visible"
       id="marker12341"
       refX="0"
       refY="0"
       orient="auto"
       inkscape:stockid="Arrow2Send">
      <path
         transform="matrix(-0.3,0,0,-0.3,0.69,0)"
         d="M 8.7185878,4.0337352 -2.2072895,0.01601326 8.7185884,-4.0017078 c -1.7454984,2.3720609 -1.7354408,5.6174519 -6e-7,8.035443 z"
         style="fill:#000000;fill-opacity:1;fill-rule:evenodd;stroke:#000000;stroke-width:0.625;stroke-linejoin:round;stroke-opacity:1"
         id="path12339"
         inkscape:connector-curvature="0" />
    </marker>
    <marker
       inkscape:isstock="true"
       style="overflow:visible"
       id="marker10585"
       refX="0"
       refY="0"
       orient="auto"
       inkscape:stockid="Arrow2Send">
      <path
         transform="matrix(-0.3,0,0,-0.3,0.69,0)"
         d="M 8.7185878,4.0337352 -2.2072895,0.01601326 8.7185884,-4.0017078 c -1.7454984,2.3720609 -1.7354408,5.6174519 -6e-7,8.035443 z"
         style="fill:#000000;fill-opacity:1;fill-rule:evenodd;stroke:#000000;stroke-width:0.625;stroke-linejoin:round;stroke-opacity:1"
         id="path10583"
         inkscape:connector-curvature="0" />
    </marker>
    <marker
       inkscape:stockid="Arrow1Mend"
       orient="auto"
       refY="0"
       refX="0"
       id="marker7415"
       style="overflow:visible"
       inkscape:isstock="true">
      <path
         id="path7413"
         d="M 0,0 5,-5 -12.5,0 5,5 Z"
         style="fill:#000000;fill-opacity:1;fill-rule:evenodd;stroke:#000000;stroke-width:1.00000003pt;stroke-opacity:1"
         transform="matrix(-0.4,0,0,-0.4,-4,0)"
         inkscape:connector-curvature="0" />
    </marker>
    <marker
       inkscape:stockid="TriangleOutM"
       orient="auto"
       refY="0"
       refX="0"
       id="marker6757"
       style="overflow:visible"
       inkscape:isstock="true">
      <path
         id="path6755"
         d="M 5.77,0 -2.88,5 V -5 Z"
         style="fill:#000000;fill-opacity:1;fill-rule:evenodd;stroke:#000000;stroke-width:1.00000003pt;stroke-opacity:1"
         transform="scale(0.4)"
         inkscape:connector-curvature="0" />
    </marker>
    <marker
       inkscape:stockid="TriangleOutM"
       orient="auto"
       refY="0"
       refX="0"
       id="TriangleOutM"
       style="overflow:visible"
       inkscape:isstock="true">
      <path
         id="path4690"
         d="M 5.77,0 -2.88,5 V -5 Z"
         style="fill:#000000;fill-opacity:1;fill-rule:evenodd;stroke:#000000;stroke-width:1.00000003pt;stroke-opacity:1"
         transform="scale(0.4)"
         inkscape:connector-curvature="0" />
    </marker>
    <marker
       inkscape:stockid="Arrow2Mend"
       orient="auto"
       refY="0"
       refX="0"
       id="marker5623"
       style="overflow:visible"
       inkscape:isstock="true">
      <path
         id="path5621"
         style="fill:#000000;fill-opacity:1;fill-rule:evenodd;stroke:#000000;stroke-width:0.625;stroke-linejoin:round;stroke-opacity:1"
         d="M 8.7185878,4.0337352 -2.2072895,0.01601326 8.7185884,-4.0017078 c -1.7454984,2.3720609 -1.7354408,5.6174519 -6e-7,8.035443 z"
         transform="scale(-0.6)"
         inkscape:connector-curvature="0" />
    </marker>
    <marker
       inkscape:stockid="Arrow2Mend"
       orient="auto"
       refY="0"
       refX="0"
       id="marker5479"
       style="overflow:visible"
       inkscape:isstock="true">
      <path
         id="path5477"
         style="fill:#000000;fill-opacity:1;fill-rule:evenodd;stroke:#000000;stroke-width:0.625;stroke-linejoin:round;stroke-opacity:1"
         d="M 8.7185878,4.0337352 -2.2072895,0.01601326 8.7185884,-4.0017078 c -1.7454984,2.3720609 -1.7354408,5.6174519 -6e-7,8.035443 z"
         transform="scale(-0.6)"
         inkscape:connector-curvature="0" />
    </marker>
    <marker
       inkscape:stockid="Arrow1Send"
       orient="auto"
       refY="0"
       refX="0"
       id="marker5415"
       style="overflow:visible"
       inkscape:isstock="true">
      <path
         id="path5413"
         d="M 0,0 5,-5 -12.5,0 5,5 Z"
         style="fill:#000000;fill-opacity:1;fill-rule:evenodd;stroke:#000000;stroke-width:1.00000003pt;stroke-opacity:1"
         transform="matrix(-0.2,0,0,-0.2,-1.2,0)"
         inkscape:connector-curvature="0" />
    </marker>
    <marker
       inkscape:stockid="Arrow1Mend"
       orient="auto"
       refY="0"
       refX="0"
       id="marker5357"
       style="overflow:visible"
       inkscape:isstock="true">
      <path
         id="path5355"
         d="M 0,0 5,-5 -12.5,0 5,5 Z"
         style="fill:#000000;fill-opacity:1;fill-rule:evenodd;stroke:#000000;stroke-width:1.00000003pt;stroke-opacity:1"
         transform="matrix(-0.4,0,0,-0.4,-4,0)"
         inkscape:connector-curvature="0" />
    </marker>
    <marker
       inkscape:stockid="Arrow2Mend"
       orient="auto"
       refY="0"
       refX="0"
       id="Arrow2Mend"
       style="overflow:visible"
       inkscape:isstock="true">
      <path
         id="path4572"
         style="fill:#000000;fill-opacity:1;fill-rule:evenodd;stroke:#000000;stroke-width:0.625;stroke-linejoin:round;stroke-opacity:1"
         d="M 8.7185878,4.0337352 -2.2072895,0.01601326 8.7185884,-4.0017078 c -1.7454984,2.3720609 -1.7354408,5.6174519 -6e-7,8.035443 z"
         transform="scale(-0.6)"
         inkscape:connector-curvature="0" />
    </marker>
    <marker
       inkscape:stockid="Arrow1Send"
       orient="auto"
       refY="0"
       refX="0"
       id="marker5117"
       style="overflow:visible"
       inkscape:isstock="true">
      <path
         id="path5115"
         d="M 0,0 5,-5 -12.5,0 5,5 Z"
         style="fill:#000000;fill-opacity:1;fill-rule:evenodd;stroke:#000000;stroke-width:1.00000003pt;stroke-opacity:1"
         transform="matrix(-0.2,0,0,-0.2,-1.2,0)"
         inkscape:connector-curvature="0" />
    </marker>
    <marker
       inkscape:stockid="Arrow1Send"
       orient="auto"
       refY="0"
       refX="0"
       id="Arrow1Send"
       style="overflow:visible"
       inkscape:isstock="true">
      <path
         id="path4560"
         d="M 0,0 5,-5 -12.5,0 5,5 Z"
         style="fill:#000000;fill-opacity:1;fill-rule:evenodd;stroke:#000000;stroke-width:1.00000003pt;stroke-opacity:1"
         transform="matrix(-0.2,0,0,-0.2,-1.2,0)"
         inkscape:connector-curvature="0" />
    </marker>
    <marker
       inkscape:stockid="Arrow1Mend"
       orient="auto"
       refY="0"
       refX="0"
       id="Arrow1Mend"
       style="overflow:visible"
       inkscape:isstock="true">
      <path
         id="path4554"
         d="M 0,0 5,-5 -12.5,0 5,5 Z"
         style="fill:#000000;fill-opacity:1;fill-rule:evenodd;stroke:#000000;stroke-width:1.00000003pt;stroke-opacity:1"
         transform="matrix(-0.4,0,0,-0.4,-4,0)"
         inkscape:connector-curvature="0" />
    </marker>
    <marker
       inkscape:stockid="Arrow1Lend"
       orient="auto"
       refY="0"
       refX="0"
       id="Arrow1Lend"
       style="overflow:visible"
       inkscape:isstock="true">
      <path
         id="path4548"
         d="M 0,0 5,-5 -12.5,0 5,5 Z"
         style="fill:#000000;fill-opacity:1;fill-rule:evenodd;stroke:#000000;stroke-width:1.00000003pt;stroke-opacity:1"
         transform="matrix(-0.8,0,0,-0.8,-10,0)"
         inkscape:connector-curvature="0" />
    </marker>
    <marker
       inkscape:stockid="TriangleInL"
       orient="auto"
       refY="0"
       refX="0"
       id="TriangleInL"
       style="overflow:visible"
       inkscape:isstock="true">
      <path
         id="path4678"
         d="M 5.77,0 -2.88,5 V -5 Z"
         style="fill:#000000;fill-opacity:1;fill-rule:evenodd;stroke:#000000;stroke-width:1.00000003pt;stroke-opacity:1"
         transform="scale(-0.8)"
         inkscape:connector-curvature="0" />
    </marker>
  </defs>
  <sodipodi:namedview
     pagecolor="#ffffff"
     bordercolor="#666666"
     borderopacity="1"
     objecttolerance="10"
     gridtolerance="10"
     guidetolerance="10"
     inkscape:pageopacity="0"
     inkscape:pageshadow="2"
     inkscape:window-width="1920"
     inkscape:window-height="1017"
     id="namedview12"
     showgrid="false"
     scale-x="1.2"
     viewbox-x="2.7755576e-017"
     inkscape:zoom="4.72"
     inkscape:cx="27.809527"
     inkscape:cy="67.010036"
     inkscape:window-x="1912"
     inkscape:window-y="-8"
     inkscape:window-maximized="1"
     inkscape:current-layer="svg10" />
  <g
     id="g19304">
    <path
       d="m 57.909322,76.866102 c 2.9,-0.3 5.1,-2.8 5,-5.8 -0.1,-3 -2.6,-5.4 -5.6,-5.4 h -0.2 c -3.1,0.1 -5.5,2.7 -5.4,5.8 0.1,1.5 0.7,2.8 1.6,3.7 -3.4,6.7 -8.6,11.6 -16.4,15.7 -5.3,2.8 -10.8,3.8 -16.3,3.1 -4.5,-0.6 -8,-2.6 -10.2,-5.9 -3.2,-4.9 -3.5,-10.2 -0.8,-15.5 1.9,-3.8 4.9,-6.6 6.8,-8 -0.4,-1.3 -1,-3.5 -1.3,-5.1 -14.5,10.5 -13,24.7 -8.6,31.4 3.3,5 10,8.1 17.4,8.1 2,0 4,-0.2 6,-0.7 12.8,-2.5 22.5,-10.1 28,-21.4 z"
       id="path2"
       inkscape:connector-curvature="0"
       style="fill:#764abc" />
    <path
       sodipodi:nodetypes="cc"
       inkscape:connector-curvature="0"
       id="path16586"
       d="m 57.409247,71.326935 c 0,0 29.213099,2.24716 47.415103,-29.43781"
       style="fill:none;stroke:#008000;stroke-width:3.75;stroke-linecap:butt;stroke-linejoin:miter;stroke-miterlimit:4;stroke-dasharray:none;stroke-opacity:1;marker-start:url(#DotS);marker-end:url(#marker17502)" />
    <path
       d="m 75.509322,64.466102 c -7.6,-8.9 -18.8,-13.8 -31.6,-13.8 h -1.6 c -0.9,-1.8 -2.8,-3 -4.9,-3 h -0.2 c -3.1,0.1 -5.5,2.7 -5.4,5.8 0.1,3 2.6,5.4 5.6,5.4 h 0.2 c 2.2,-0.1 4.1,-1.5 4.9,-3.4 h 1.8 c 7.6,0 14.8,2.2 21.3,6.5 5,3.3 8.6,7.6 10.6,12.8 1.7,4.2 1.6,8.3 -0.2,11.8 -2.8,5.3 -7.5,8.2 -13.7,8.2 -4,0 -7.8,-1.2 -9.8,-2.1 -1.1,1 -3.1,2.6 -4.5,3.6 4.3,2 8.7,3.1 12.9,3.1 9.6,0 16.7,-5.3 19.4,-10.6 2.9,-5.8 2.7,-15.8 -4.8,-24.3 z"
       id="path4"
       inkscape:connector-curvature="0"
       style="fill:#764abc" />
    <path
       inkscape:connector-curvature="0"
       id="path3734"
       d="m 90.168064,45.283962 c 0.0457,1.371059 1.188251,2.467906 2.55931,2.467906 h 0.0914 c 1.416761,-0.0457 2.513608,-1.233953 2.467906,-2.650714 -0.0457,-1.371059 -1.188251,-2.467906 -2.55931,-2.467906 h -0.0914 c -0.0914,0 -0.22851,0 -0.319914,0.0457 -1.87378,-3.107733 -2.650714,-6.489678 -2.376502,-10.145836 0.182808,-2.742117 1.096847,-5.118619 2.696416,-7.083804 1.325357,-1.690972 3.884667,-2.513608 5.62134,-2.55931 4.84441,-0.0914 6.901,5.941255 7.0381,8.36346 0.59413,0.137105 1.59957,0.457019 2.2851,0.685529 -0.54842,-7.403718 -5.11862,-11.242683 -9.50601,-11.242683 -4.113173,0 -7.906436,2.970628 -9.414601,7.358016 -2.10229,5.849851 -0.731231,11.471193 1.828079,15.904283 -0.22851,0.319914 -0.365616,0.822636 -0.319914,1.325357 z"
       style="fill:#ff0000;stroke:none;stroke-width:0.45701963" />
    <path
       sodipodi:nodetypes="cc"
       inkscape:connector-curvature="0"
       id="path16518"
       d="m 37.40951,53.124931 c 0,0 15.954847,-20.8986 58.650913,-19.325588"
       style="fill:none;stroke:#008000;stroke-width:3.75;stroke-linecap:butt;stroke-linejoin:miter;stroke-miterlimit:4;stroke-dasharray:none;stroke-opacity:1;marker-start:url(#marker17752);marker-end:url(#marker17752)" />
    <path
       d="m 24.709322,78.566102 c 0.1,3 2.6,5.4 5.6,5.4 h 0.2 c 3.1,-0.1 5.5,-2.7 5.4,-5.8 -0.1,-3 -2.6,-5.4 -5.6,-5.4 h -0.2 c -0.2,0 -0.5,0 -0.7,0.1 -4.1,-6.8 -5.8,-14.2 -5.2,-22.2 0.4,-6 2.4,-11.2 5.9,-15.5 2.9,-3.7 8.5,-5.5 12.3,-5.6 10.6,-0.2 15.1,13 15.4,18.3 1.3,0.3 3.5,1 5,1.5 -1.2,-16.2 -11.2,-24.6 -20.8,-24.6 -9,0 -17.3,6.5 -20.6,16.1 -4.6,12.8 -1.6,25.1 4,34.8 -0.5,0.7 -0.8,1.8 -0.7,2.9 z"
       id="path6"
       inkscape:connector-curvature="0"
       style="fill:#764abc" />
    <path
       inkscape:connector-curvature="0"
       id="path3730"
       d="m 105.34112,44.507029 c 1.32535,-0.137106 2.3308,-1.279655 2.28509,-2.650714 -0.0457,-1.371059 -1.18825,-2.467906 -2.55931,-2.467906 h -0.0914 c -1.41676,0.0457 -2.51361,1.233953 -2.46791,2.650714 0.0457,0.685529 0.31992,1.279655 0.73124,1.690972 -1.55387,3.062032 -3.93037,5.301428 -7.495127,7.175209 -2.422204,1.279655 -4.935812,1.736674 -7.449419,1.41676 -2.056589,-0.274211 -3.656158,-1.188251 -4.661601,-2.696415 -1.462463,-2.239397 -1.599568,-4.661601 -0.365615,-7.083805 0.868337,-1.736674 2.239396,-3.016329 3.107733,-3.656157 -0.182808,-0.594125 -0.45702,-1.599568 -0.594125,-2.3308 -6.626785,4.798706 -5.941256,11.288385 -3.930369,14.350417 1.508165,2.285098 4.570196,3.701859 7.952141,3.701859 0.91404,0 1.828079,-0.0914 2.742118,-0.319914 5.849854,-1.142549 10.282944,-4.615898 12.796554,-9.78022 z"
       style="fill:#ff0000;stroke:none;stroke-width:0.45701963" />
    <path
       inkscape:connector-curvature="0"
       id="path3732"
       d="m 113.38466,38.839985 c -3.47335,-4.067474 -8.59197,-6.306871 -14.44182,-6.306871 h -0.73123 c -0.41132,-0.822635 -1.279655,-1.371058 -2.239397,-1.371058 h -0.0914 c -1.41676,0.0457 -2.513608,1.233953 -2.467906,2.650713 0.0457,1.371059 1.188251,2.467906 2.55931,2.467906 h 0.0914 c 1.005443,-0.0457 1.873783,-0.685529 2.239393,-1.553866 h 0.82264 c 3.47335,0 6.76389,1.005443 9.73452,2.970627 2.2851,1.508165 3.93037,3.47335 4.8444,5.849852 0.77694,1.919482 0.73124,3.793263 -0.0914,5.392831 -1.27965,2.422204 -3.42765,3.747561 -6.26117,3.747561 -1.82808,0 -3.56475,-0.548423 -4.47879,-0.959741 -0.50272,0.45702 -1.41676,1.188251 -2.05659,1.645271 1.96519,0.914039 3.97607,1.41676 5.89555,1.41676 4.38739,0 7.63223,-2.422204 8.86619,-4.844408 1.32535,-2.650713 1.23395,-7.22091 -2.1937,-11.105577 z"
       style="fill:#ff0000;stroke:none;stroke-width:0.45701963" />
  </g>
</svg>
